<svg xmlns="http://www.w3.org/2000/svg" viewBox="0 0 196 159">
                            <g fill="none" fill-rule="evenodd">
                                <text fill="#E81C4E" font-size="12">
                                    <tspan x="14.109" y="151.979">$</tspan>
                                </text>
                                <text fill="#FF567F" font-size="20" opacity=".298">
                                    <tspan x="18.274" y="30.979">$</tspan>
                                </text>
                                <text fill="#FF567F" font-size="12">
                                    <tspan x="18.609" y="77.979">$</tspan>
                                </text>
                                <rect width="81" height="53" x="1" y="104.979" stroke="#E81C4E" stroke-width="2" rx="3"></rect>
                                <path stroke="#FECFE4" d="M2 119.479h77M2 130.479h77"></path>
                                <path stroke="#E81C4E" d="M64 150.884a6.513 6.513 0 0 0 2.857-5.405A6.513 6.513 0 0 0 64 140.073a6.349 6.349 0 0 1 3.571-1.094c3.55 0 6.429 2.91 6.429 6.5s-2.878 6.5-6.429 6.5A6.349 6.349 0 0 1 64 150.884z"></path>
                                <circle cx="60.5" cy="145.479" r="6.5" stroke="#E81C4E"></circle>
                                <circle cx="24" cy="19.979" r="19" stroke="#E81C4E" stroke-width="2" opacity=".253"></circle>
                                <circle cx="21.5" cy="70.479" r="14.5" stroke="#FF567F" stroke-width="2"></circle>
                                <path stroke="#E81C4E" stroke-width="2" d="M55 68.979v10h93v-10M64.5 79.979v23"></path>
                                <path stroke="#FECFE4" d="M73.5 79.979v23M83.5 80.979v40M121.5 80.979v40M129.5 80.979v40"></path>
                                <path stroke="#E81C4E" d="M139.5 80.979v40"></path>
                                <path stroke="#E81C4E" stroke-linejoin="round" stroke-width="2" d="M82 121.979h70v5M83 127.979h74v14H83"></path>
                                <path stroke="#E81C4E" d="M91.5 121.479h22v-26.5a6.5 6.5 0 0 0-6.5-6.5h-9a6.5 6.5 0 0 0-6.5 6.5v26.5z"></path>
                                <text fill="#E81C4E" font-size="13">
                                    <tspan x="98.323" y="111.979">$</tspan>
                                </text>
                                <path stroke="#FECFE4" stroke-width="2" d="M121 50.99h56.63c8.913-.227 13.37 2.896 13.37 9.37v32.173c-.179 6.297-3.676 9.446-10.493 9.446h-39.82"></path>
                                <path fill="#F6FBFF" stroke="#FF567F" stroke-width="2" d="M173.5 80.479a6 6 0 0 0 6 6h14a1 1 0 0 0 1-1v-16a1 1 0 0 0-1-1h-14a6 6 0 0 0-6 6v6z"></path>
                                <path fill="#FFF" fill-opacity=".101" stroke="#FF567F" d="M150.5 50.479h16v-21.5a6.5 6.5 0 0 0-6.5-6.5h-3a6.5 6.5 0 0 0-6.5 6.5v21.5z"></path>
                                <text fill="#E81C4E" font-size="11" font-weight="500" opacity=".46">
                                    <tspan x="154.975" y="41.979">$</tspan>
                                </text>
                                <path stroke="#FF567F" d="M143.5 50.479h31v-33.5a3.5 3.5 0 0 0-3.5-3.5h-24a3.5 3.5 0 0 0-3.5 3.5v33.5z"></path>
                                <path stroke="#FECFE4" stroke-width="2" d="M116 47.979v-6.491c0-3.148 1.664-5.51 5.43-5.51H138M177 36.979h3.824c6.117 0 9.176 2.203 9.176 6.608V55.98"></path>
                                <path stroke="#FECFE4" d="M144 16.979v-6.126c0-2.583 1.146-3.874 3.439-3.874h23.381c2.367 0 3.18 1.739 3.18 4.347v5.653M153 14.979c0 1.1-1.665 9.9-10 11M166.035 14.979c-.375 5.866 2.28 9.533 7.965 11M189 60.479h-54M190 93.479h-50"></path>
                                <path stroke="#E81C4E" stroke-linecap="round" stroke-linejoin="round" stroke-width="2" d="M151 68.979H48l51.27-30z"></path>
                            </g>
                        </svg>