<svg xmlns="http://www.w3.org/2000/svg" viewBox="0 0 176 175">
                            <g fill="none" fill-rule="evenodd" transform="translate(.19)">
                                <g stroke="#FF567F" opacity=".28">
                                    <path d="M152.473 146.148V97.594h7.122v39.803M133 97.594h41.26c.861-4.844.861-10.172 0-15.985L164.193 54h-17.134L133 97.594z"></path>
                                </g>
                                <g opacity=".168" transform="translate(87 1)">
                                    <path stroke="#FF567F" d="M23 36c12.703 0 23-9.828 23-21.951C27.6 3.512 12.42 1.756 2.76 0 0 6.146 0 8.836 0 14.049 0 26.172 10.297 36 23 36z"></path>
                                    <ellipse cx="24.865" cy="19.862" fill="#FF567F" rx="2.486" ry="2.483"></ellipse>
                                    <path stroke="#FF567F" d="M13.676 14.648l11.189 5.214v-8.69M0 18h7.46M46 18h-7.46M24.243 36v-6.207"></path>
                                </g>
                                <circle cx="87.5" cy="87.5" r="86.5" stroke="#FF567F" stroke-width="2"></circle>
                                <g stroke="#E81C4E" transform="translate(41 55)">
                                    <path stroke-width="2" d="M12.764 27.59C19.398 3.529 36.204-4.784 63.18 2.654c10.172 5.25 15.866 14.17 17.083 26.759-5.625-5.599-11.485-7.699-17.578-6.299"></path>
                                    <path stroke-width="2" d="M80.264 29.412c-4.288-3.795-9.73-5.693-16.326-5.693-9.895 0-24.406 14.272-34.96 18.813-10.554 4.54-18.47 9.73-28.364-9.406 17.81-5.514 17.81-9.407 23.746-14.596 5.937-5.19 9.235-6.487 19.13-6.487"></path>
                                    <path stroke-width="2" d="M18.164 46.877V66.74c0 9.133 4.017 15.656 20.42 23.484 16.404 7.828 35.152-9.366 39.169-19.57 4.017-10.203 2.008-39.432 2.008-41.242"></path>
                                    <ellipse cx="36.389" cy="54.129" fill="#FFF" rx="2.025" ry="2.004"></ellipse>
                                    <ellipse cx="63.389" cy="54.129" fill="#FFF" rx="2.025" ry="2.004"></ellipse>
                                    <path stroke-width="2" d="M45.514 49.141l-20.95.508v1.328a9.5 9.5 0 0 0 9.5 9.5h1.95a9.5 9.5 0 0 0 9.5-9.5V49.14zM72.514 49.138l-20.95.458v.045a9.5 9.5 0 0 0 9.5 9.5h1.95a9.5 9.5 0 0 0 9.5-9.5v-.503zM39.764 90.87l-.26 8.65h-21.34v15.399M54.614 90.87v7.999h21.6v16.05M58.995 41.103c4.217-2.186 7.63-1.494 10.236 2.077M31.664 41.271c2.925-1.342 5.625-1.342 8.1 0"></path>
                                    <rect width="8.45" height="1.672" x="44.314" y="64.649" fill="#D8D8D8" rx=".836"></rect>
                                    <path stroke-width="2" d="M39.764 70.83c6.3 3.562 12.6 3.562 18.9 0"></path>
                                </g>
                            </g>
                        </svg>