<svg class="index-cta--bg" xmlns="http://www.w3.org/2000/svg" viewBox="0 0 1800 678">
            <g fill="none" fill-rule="evenodd">
                <g opacity=".584">
                    <path fill="#FFF0EF" d="M1472 538.847v136.135h-167.232V675h-28.27V480.296H1274v-3.28h2.498V459.46c0-2.096 1.707-3.795 3.815-3.795 2.108 0 3.816 1.7 3.816 3.795v.325L1335.728 440l50.236 19.705c0-5.087 7.631-5.023 7.631-.036v17.347h2.362v3.28h-2.362v58.551H1472zM348.764 65l-.145-.812-.002-.003-.004-.024h-.006c-.034-.141-.115-.26-.25-.26l-.606-.002c0-.005.005-.008.005-.014V62.85c0-.095-.07-.173-.157-.173H345.4c-.086 0-.157.078-.157.173v1.036c0 .006.005.01.005.014l-.607.002c-.134 0-.215.119-.249.26h-.006l-.004.024-.002.003-.145.812L341 60h11l-3.236 5zM346 69.995c-1.252-.001-2.447.003-3 .005l.76-4c.323.058.998.047 2.24.03 1.242.017 1.918.028 2.24-.03l.76 4c-.553-.002-1.748-.006-3-.005zm21.087-62.943C362.523 2.498 354.783.156 346.945.014V.003L346.837 0h-.004l-.02-.001c-.105 0-.209.005-.313.006-.104-.001-.208-.006-.313-.006h-.024l-.108.003v.011c-7.838.142-15.579 2.484-20.143 7.038-4.408 4.398-6.776 10.983-5.621 18.252.807 5.089 3.823 10.924 7.469 16.658l15.396 23.06L340.924 77l.063-.025c.288.03 10.738.03 11.025 0l.063.025-2.231-11.977 15.396-23.061c3.646-5.734 6.662-11.57 7.47-16.658 1.154-7.27-1.215-13.854-5.623-18.252zM573 675.301V480.199h-7.315v5.964h-41.127v-7.366h.02v-2.173h1.591V473h-13.007v3.624h1.611v9.539h-94.395v-5.964h-7.326V615.47H413v4.02h.052V678z"></path>
                    <path fill="#FFF" d="M1100 466h9v-14h-9zM1120 466h9v-14h-9zM1139 466h9v-14h-9zM1120 487h9v-14h-9zM1120 509h9v-14h-9zM1139 487h9v-14h-9zM1159 466h9v-14h-9zM780 459h59v-8h-59zM886 459h44v-8h-44z"></path>
                    <path fill="#FFADA0" d="M231 480h100v-2H231zM625 550h50v-2h-50zM1188 487h50v-2h-50zM1009 244h50v-2h-50zM664 244h30v-2h-30z" opacity=".463"></path>
                    <path fill="#FFADA0" d="M689 451h20v-2h-20zM1085 570h20v-2h-20zM920 368h20v-2h-20z" opacity=".366"></path>
                    <path fill="#FFADA0" d="M962 535h8v-2h-8z" opacity=".291"></path>
                    <path fill="#FFADA0" d="M1153 487h20v-2h-20zM977 244h20v-2h-20zM703 244h15v-2h-15z" opacity=".366"></path>
                    <path fill="#FFADA0" d="M1128 487h10v-2h-10z" opacity=".224"></path>
                    <path fill="#FFF0EF" d="M1247 373h44v-2h-44zM1655 197h7v-2h-7zM1595 197h53v-2h-53zM1631 187h53v-2h-53zM499 386h33v-2h-33zM106 190h42v-2h-42z"></path>
                    <path fill="#FFADA0" d="M492.5 283l-.949-1.829a9.427 9.427 0 0 1-.124-.252c-.473-.979-1.73-3.579-5.427-4.797l.653-2.122c3.141 1.035 4.882 2.935 5.833 4.375.585-.896 2.383-3.228 5.86-4.375l.654 2.122c-3.432 1.131-4.783 3.57-4.839 3.673L492.499 283zM520.5 266l-.949-1.829a9.427 9.427 0 0 1-.124-.252c-.473-.979-1.73-3.579-5.427-4.797l.653-2.122c3.141 1.035 4.882 2.935 5.833 4.375.585-.896 2.383-3.228 5.86-4.375l.654 2.122c-3.432 1.131-4.783 3.57-4.839 3.673L520.499 266zM1328.5 312l-.948-1.828c-.035-.068-.076-.153-.124-.253-.474-.979-1.732-3.578-5.428-4.798l.653-2.121c3.14 1.035 4.88 2.933 5.833 4.373.592-.92 2.364-3.22 5.861-4.373l.653 2.121c-3.434 1.133-4.826 3.652-4.84 3.678L1328.5 312zM1358.5 329l-.948-1.83a9.27 9.27 0 0 1-.124-.25c-.474-.98-1.73-3.58-5.428-4.798l.653-2.122c3.14 1.036 4.88 2.933 5.833 4.372.578-.893 2.36-3.217 5.861-4.372l.653 2.122c-3.43 1.131-4.782 3.568-4.838 3.671l-1.663 3.207zM1440.5 50l-.948-1.83a9.271 9.271 0 0 1-.124-.25c-.474-.98-1.73-3.58-5.428-4.798l.653-2.122c3.14 1.035 4.88 2.933 5.833 4.372.578-.894 2.36-3.217 5.861-4.372l.653 2.122c-3.43 1.13-4.782 3.568-4.838 3.671L1440.499 50zM1415.5 62l-.948-1.83a9.12 9.12 0 0 1-.124-.25c-.474-.98-1.73-3.579-5.428-4.798l.653-2.122c3.14 1.035 4.88 2.932 5.833 4.372.574-.894 2.347-3.213 5.861-4.372l.653 2.122c-3.43 1.13-4.781 3.568-4.837 3.671L1415.499 62zM188.226 361.826h29.548c-.56-7.622-6.973-13.652-14.774-13.652-7.801 0-14.214 6.03-14.774 13.652zM220 364h-34v-1.087c0-9.326 7.626-16.913 17-16.913 9.374 0 17 7.587 17 16.913V364zM1566.225 353.826h29.55c-.562-7.622-6.974-13.652-14.775-13.652-7.802 0-14.214 6.03-14.775 13.652zM1598 356h-34v-1.087c0-9.326 7.626-16.913 17-16.913 9.373 0 17 7.587 17 16.913V356zM347.236 221.826h52.532c-.563-7.622-6.993-13.652-14.817-13.652-4.885 0-9.46 2.386-12.238 6.383l-.835 1.201-.921-1.137a13.34 13.34 0 0 0-10.411-4.956c-6.995 0-12.75 5.363-13.31 12.16zM402 224h-57v-1.087c0-8.504 6.973-15.422 15.546-15.422 4.264 0 8.273 1.708 11.198 4.729a17.109 17.109 0 0 1 13.207-6.22c9.4 0 17.049 7.587 17.049 16.913V224zM1384.238 233.78h63.51c-.564-7.386-6.725-13.222-14.217-13.222-3.54 0-6.943 1.328-9.581 3.74l-.984.9-.699-1.137c-3.785-6.162-10.325-9.841-17.492-9.841-10.97 0-19.962 8.676-20.537 19.56zM1450 236h-68v-1.11c0-12.621 10.217-22.89 22.775-22.89 7.514 0 14.404 3.648 18.674 9.824a16.343 16.343 0 0 1 10.082-3.486c9.081 0 16.469 7.425 16.469 16.552V236z"></path>
                </g>
                <path fill="#FFF7F6" d="M0 674h1801v2H0z"></path>
                <path fill="#FFF" stroke="#454545" stroke-width="2" d="M650.097 598.976v67.068h71.38v-67.068"></path>
                <path fill="#FFE6E2" d="M644.415 600.52v-3.863l41.549-50.3 1.223-.357 42.772 50.657v3.863h-74.713z"></path>
                <path stroke="#454545" stroke-width="2" d="M644.415 598.976v-2.319l41.549-50.3 42.367 50.3v2.319h-75.926z"></path>
                <path stroke="#FFE6E2" stroke-width="4" d="M718.224 598.525V673M653.35 598.525v73.94"></path>
                <g stroke="#454545" stroke-width="2">
                    <path d="M678.619 643.32h14.69v21.902h-14.69z"></path>
                    <path fill="#FFE6E2" d="M681.815 646.887h7.944v18.334h-7.944z"></path>
                </g>
                <path fill="#FFE6E2" stroke="#F7C3BD" stroke-width="3" d="M663.67 611.356h12.449v19.831H663.67z"></path>
                <path stroke="#454545" stroke-width="2" d="M662.46 610.143h14.692v22.258H662.46zM669.806 632.688l.178-22.831M661.816 617.348h15.803M661.816 625.018h15.803"></path>
                <path fill="#FFE6E2" stroke="#F7C3BD" stroke-width="3" d="M697.053 611.356H709.5v19.831h-12.448z"></path>
                <path stroke="#454545" stroke-width="2" d="M695.843 610.143h14.69v22.258h-14.69zM703.188 632.688l.178-22.831M695.198 617.348H711M695.198 625.018H711"></path>
                <g stroke="#454545" stroke-width="2">
                    <path fill="#FFF" d="M676.31 587.987h20.018v-.655c0-5.528-4.48-10.009-10.008-10.009-5.528 0-10.01 4.481-10.01 10.009v.655z"></path>
                    <path d="M686.32 588.452v-11.237M686.32 588.452l8.167-7.313M686.32 588.452l-7.99-7.848"></path>
                </g>
                <path stroke="#454545" stroke-width="2" d="M676.021 666.222V673h20.064v-6.778z"></path>
                <path stroke="#454545" stroke-width="2" d="M650.097 666.222V673h71.38v-6.778zM676.02 669.611h20.065M728.331 596.657h-83.916"></path>
                <path stroke="#FFE6E2" stroke-width="2" d="M729.039 601.34l-85.862-.363"></path>
                <g stroke-width="2">
                    <path fill="#FFE6E2" stroke="#F7C3BD" d="M661.683 656.746h5.41v-9.485a2.705 2.705 0 0 0-5.41 0v9.485z"></path>
                    <path stroke="#454545" d="M661.683 657.1h5.78v-10.009a2.89 2.89 0 1 0-5.78 0v10.01zM662.535 649.764h5.558"></path>
                </g>
                <g stroke-width="2">
                    <path fill="#FFE6E2" stroke="#F7C3BD" d="M704.122 656.746h5.41v-9.485a2.705 2.705 0 0 0-5.41 0v9.485z"></path>
                    <path stroke="#454545" d="M704.122 657.1h5.78v-10.009a2.89 2.89 0 1 0-5.78 0v10.01zM704.974 649.764h5.558"></path>
                </g>
                <path fill="#FFF" stroke="#454545" stroke-width="2" d="M644.707 596.665h83.585v2.966h-83.585z"></path>
                <g>
                    <path fill="#FFF" stroke="#454545" stroke-width="2" d="M611.403 673V531.316l-112.536.272V673z"></path>
                    <path stroke="#454545" stroke-width="2" d="M498.867 672.748V531.316"></path>
                    <path stroke="#FFE6E2" stroke-width="4" d="M502.198 533.447v138.488"></path>
                    <path fill="#FFE6E2" stroke="#454545" stroke-width="2" d="M515.601 644.704h12.4v10.009h-12.4zM549.735 645.237h12.4v10.009h-12.4zM584.936 645.237h12.4v10.009h-12.4z"></path>
                    <path stroke="#FFE6E2" stroke-width="4" d="M608.247 533.447v138.488"></path>
                    <path fill="#FFF" stroke="#454545" stroke-width="2" d="M490.533 519h130.293v11.849H490.533zM490 580.254h131v11.849H490z"></path>
                </g>
                <g stroke-width="2">
                    <path fill="#FFE6E2" stroke="#F7C3BD" d="M514 566.902h11.192v-18.757a5.596 5.596 0 0 0-11.192 0v18.757z"></path>
                    <path stroke="#454545" d="M514 568h12v-20a6 6 0 1 0-12 0v20zM516.23 553.078h9.693"></path>
                </g>
                <g stroke-width="2">
                    <path fill="#FFE6E2" stroke="#F7C3BD" d="M514 628.902h11.192v-18.757a5.596 5.596 0 0 0-11.192 0v18.757z"></path>
                    <path stroke="#454545" d="M514 630h12v-20a6 6 0 1 0-12 0v20zM516.23 615.078h9.693"></path>
                </g>
                <g stroke-width="2">
                    <path fill="#FFE6E2" stroke="#F7C3BD" d="M549 628.902h11.192v-18.757a5.596 5.596 0 0 0-11.192 0v18.757z"></path>
                    <path stroke="#454545" d="M549 630h12v-20a6 6 0 1 0-12 0v20zM551.23 615.078h9.693"></path>
                </g>
                <g stroke-width="2">
                    <path fill="#FFE6E2" stroke="#F7C3BD" d="M583 628.902h11.192v-18.757a5.596 5.596 0 0 0-11.192 0v18.757z"></path>
                    <path stroke="#454545" d="M583 630h12v-20a6 6 0 1 0-12 0v20zM585.23 615.078h9.693"></path>
                </g>
                <g stroke-width="2">
                    <path fill="#FFE6E2" stroke="#F7C3BD" d="M549 566.902h11.192v-18.757a5.596 5.596 0 0 0-11.192 0v18.757z"></path>
                    <path stroke="#454545" d="M549 568h12v-20a6 6 0 1 0-12 0v20zM551.23 553.078h9.693"></path>
                </g>
                <g stroke-width="2">
                    <path fill="#FFE6E2" stroke="#F7C3BD" d="M582 566.902h11.192v-18.757a5.596 5.596 0 0 0-11.192 0v18.757z"></path>
                    <path stroke="#454545" d="M582 568h12v-20a6 6 0 1 0-12 0v20zM584.23 553.078h9.693"></path>
                </g>
                <g stroke="#454545" stroke-width="2">
                    <path fill="#FFE6E2" d="M505 508.471V500h19v8.471h-2.986z"></path>
                    <path d="M508.257 508.47h12.757M520.471 508.735V518M509.071 508.735V518"></path>
                </g>
                <path stroke="#FFDDD8" stroke-width="3" d="M489 534.5h132.646M488 594.5h133.646"></path>
                <path stroke="#454545" stroke-width="2" d="M243.883 673.5H741"></path>
                <g>
                    <path fill="#FFE6E2" d="M208.184 616.847c.309-1.166.474-2.39.474-3.65 0-4.997-2.583-9.4-6.507-11.987a8.528 8.528 0 0 0 .391-2.558c0-4.778-3.936-8.652-8.792-8.652-4.855 0-8.792 3.874-8.792 8.652 0 .996.18 1.949.495 2.84-3.694 2.617-6.101 6.883-6.101 11.705 0 1.344.19 2.643.54 3.877-3.429 1.18-5.892 4.383-5.892 8.16 0 3.022 1.578 5.68 3.965 7.226a8.49 8.49 0 0 0-.907 3.808c0 4.778 3.936 8.652 8.792 8.652 1.172 0 2.288-.23 3.31-.64a13.58 13.58 0 0 0 8.413 2.896c7.46 0 13.506-5.95 13.506-13.29 0-.78-.072-1.543-.202-2.286 1.914-1.587 3.133-3.96 3.133-6.617 0-3.752-2.432-6.937-5.826-8.136z"></path>
                    <g fill="#401737">
                        <path d="M193.245 644.138l.272.215a12.656 12.656 0 0 0 7.943 2.765c7.033 0 12.754-5.691 12.754-12.687 0-.717-.064-1.451-.192-2.182l-.058-.334.26-.218a8.022 8.022 0 0 0 2.886-6.16c0-3.383-2.155-6.426-5.365-7.572l-.51-.182.137-.522a13.784 13.784 0 0 0-5.718-14.982l-.367-.244.13-.42c.24-.77.36-1.57.36-2.382 0-4.44-3.63-8.053-8.094-8.053-4.464 0-8.095 3.613-8.095 8.053 0 .889.153 1.778.456 2.643l.145.416-.359.257c-3.621 2.594-5.782 6.786-5.782 11.214 0 1.252.172 2.502.512 3.715l.149.533-.525.183c-3.245 1.129-5.425 4.181-5.425 7.594a8.026 8.026 0 0 0 3.65 6.727l.437.286-.23.467a7.936 7.936 0 0 0-.835 3.543c0 4.44 3.631 8.052 8.095 8.052a8.08 8.08 0 0 0 3.048-.595l.321-.13zm8.215 4.16c-3.073 0-5.975-.97-8.412-2.812a9.259 9.259 0 0 1-3.172.558c-5.118 0-9.282-4.142-9.282-9.233 0-1.244.25-2.454.743-3.602a9.194 9.194 0 0 1-3.765-7.42c0-3.733 2.273-7.088 5.709-8.514a14.936 14.936 0 0 1-.42-3.512c0-4.662 2.207-9.084 5.927-11.915a9.106 9.106 0 0 1-.387-2.615c0-5.09 4.164-9.233 9.282-9.233s9.281 4.142 9.281 9.233c0 .783-.098 1.558-.293 2.31a14.957 14.957 0 0 1 5.974 15.505c3.402 1.44 5.652 4.787 5.652 8.49a9.192 9.192 0 0 1-3.052 6.84c.103.687.156 1.377.156 2.053 0 7.647-6.254 13.868-13.94 13.868z"></path>
                        <path d="M197.934 674h1.273v-52.03h-1.273z"></path>
                        <path d="M199.407 633.254l-.836-.824 6.163-6.072.836.824z"></path>
                    </g>
                </g>
                <g>
                    <path fill="#FFE6E2" d="M814.956 647.537c-6.368 0-11.53-5.162-11.53-11.53 0-1.07.149-2.135.442-3.164L814.956 594l11.087 38.843c1.747 6.123-1.8 12.504-7.923 14.251a11.53 11.53 0 0 1-3.164.443z"></path>
                    <path stroke="#454545" stroke-width="2" d="M811.043 598.296l-10.126 35.474a10.53 10.53 0 0 0-.404 2.89c0 5.816 4.714 10.53 10.53 10.53.977 0 1.95-.136 2.89-.404 5.592-1.597 8.831-7.424 7.235-13.016l-10.125-35.474zM811.37 672.42v-25.536"></path>
                </g>
                <g>
                    <path stroke="#FFE6E2" stroke-width="4" d="M1319.84 511.827v160.964"></path>
                    <path fill="#FFF" d="M1420.059 674.1V510.393c-67.898-1.225-101.848-1.401-101.848-.529v163.908l101.848.328z"></path>
                    <path stroke="#454545" stroke-width="2" d="M1318.258 673.254V509.97M1318.258 673.254V509.97"></path>
                    <path fill="#FFE6E2" stroke="#454545" stroke-width="2" d="M1343.867 654.795h16.93v10.69h-16.93z"></path>
                    <path stroke="#454545" stroke-width="2" d="M1420.059 673.888V509.97"></path>
                    <path stroke="#FFE6E2" stroke-width="4" d="M1416.494 511.874V672.83"></path>
                    <path stroke="#454545" stroke-width="2" d="M1314 500.395h112v8.998h-112z"></path>
                    <path fill="#FFF" stroke="#454545" stroke-width="2" d="M1314.421 549.042h110.738v8.998h-110.738zM1314.421 598.111h110.738v8.998h-110.738z"></path>
                    <path stroke="#454545" stroke-width="2" d="M1420.059 673.888l-101.8-.635M1420.059 646.392h-101.8"></path>
                    <g stroke-width="2">
                        <path fill="#FFE6E2" stroke="#F7C3BD" d="M1330.937 536.808h8.436v-14.105a4.218 4.218 0 0 0-8.436 0v14.105z"></path>
                        <path stroke="#454545" d="M1330.937 537.655h9.074v-15.056a4.537 4.537 0 1 0-9.074 0v15.056zM1332.493 526.376h7.667"></path>
                    </g>
                    <g stroke-width="2">
                        <path fill="#FFE6E2" stroke="#F7C3BD" d="M1330.937 587.19h8.436v-14.104a4.218 4.218 0 0 0-8.436 0v14.105z"></path>
                        <path stroke="#454545" d="M1330.937 588.037h9.074v-15.055a4.537 4.537 0 1 0-9.074 0v15.055zM1332.493 576.76h7.667"></path>
                    </g>
                    <g stroke-width="2">
                        <path fill="#FFE6E2" stroke="#F7C3BD" d="M1330.937 635.61h8.436v-14.104a4.218 4.218 0 0 0-8.436 0v14.105z"></path>
                        <path stroke="#454545" d="M1330.937 636.457h9.074v-15.055a4.537 4.537 0 1 0-9.074 0v15.055zM1332.493 625.18h7.667"></path>
                    </g>
                    <g stroke-width="2">
                        <path fill="#FFE6E2" stroke="#F7C3BD" d="M1364.16 635.61h8.435v-14.104a4.218 4.218 0 0 0-8.435 0v14.105z"></path>
                        <path stroke="#454545" d="M1364.16 636.457h9.074v-15.055a4.537 4.537 0 1 0-9.074 0v15.055zM1365.716 625.18h7.666"></path>
                    </g>
                    <g stroke-width="2">
                        <path fill="#FFE6E2" stroke="#F7C3BD" d="M1364.16 587.19h8.435v-14.104a4.218 4.218 0 0 0-8.435 0v14.105z"></path>
                        <path stroke="#454545" d="M1364.16 588.037h9.074v-15.055a4.537 4.537 0 1 0-9.074 0v15.055zM1365.716 576.76h7.666"></path>
                    </g>
                    <g stroke-width="2">
                        <path fill="#FFE6E2" stroke="#F7C3BD" d="M1398.034 587.19h8.436v-14.104a4.218 4.218 0 0 0-8.436 0v14.105z"></path>
                        <path stroke="#454545" d="M1398.034 588.037h9.075v-15.055a4.537 4.537 0 1 0-9.075 0v15.055zM1399.59 576.76h7.667"></path>
                    </g>
                    <g stroke-width="2">
                        <path fill="#FFE6E2" stroke="#F7C3BD" d="M1362.857 536.808h8.436v-14.105a4.218 4.218 0 0 0-8.436 0v14.105z"></path>
                        <path stroke="#454545" d="M1362.857 537.655h9.074v-15.056a4.537 4.537 0 1 0-9.074 0v15.056zM1364.413 526.376h7.667"></path>
                    </g>
                    <g stroke-width="2">
                        <path fill="#FFE6E2" stroke="#F7C3BD" d="M1398.034 536.808h8.436v-14.105a4.218 4.218 0 0 0-8.436 0v14.105z"></path>
                        <path stroke="#454545" d="M1398.034 537.655h9.075v-15.056a4.537 4.537 0 1 0-9.075 0v15.056zM1399.59 526.376h7.667"></path>
                    </g>
                    <g stroke="#454545" stroke-width="2">
                        <path d="M1391.52 613.593h22.103v32.437h-22.103z"></path>
                        <path fill="#FFE6E2" d="M1396.254 618.76h12.203v27.271h-12.203z"></path>
                    </g>
                    <g stroke="#454545" stroke-width="2">
                        <path fill="#FFE6E2" d="M1329.937 491.774V485h14.983v6.774h-2.355z"></path>
                        <path d="M1332.506 491.774h10.06M1342.137 491.986v7.41M1333.148 491.986v7.41"></path>
                    </g>
                    <path stroke="#FFDDD8" stroke-width="3" d="M1313 511.5h114M1313.651 559.92h112.698M1313.651 609.994h112.698"></path>
                    <path stroke="#454545" stroke-width="2" d="M1352.411 509.864v37.951M1352.411 558.284v38.605M1384.983 558.284v38.605M1384.983 607.359v38.605M1384.983 646.618V674.1M1353.063 607.359v38.605M1384.983 509.864v37.951M1384.657 652.18h35.177M1384.657 657.414h35.177M1384.657 663.303h35.177M1384.657 668.538h35.177M1342.966 660.032h18.891"></path>
                    <g transform="translate(1448 578)">
                        <g stroke="#454545" stroke-width="2">
                            <path fill="#FFF" d="M7.225 28.765v66.683h95.237V28.765"></path>
                            <path d="M49.604 74.874h12.45v20.228h-12.45z"></path>
                            <path fill="#FFE6E2" d="M52.494 77.986h6.67v17.116h-6.67z"></path>
                        </g>
                        <g stroke-width="2">
                            <path fill="#FFE6E2" stroke="#454545" d="M16.763 36.956h12.45v14.998h-12.45z"></path>
                            <path stroke="#F7C3BD" d="M17.59 37.631h10.746v13.48H17.59z"></path>
                            <path stroke="#454545" d="M16.188 44.668h13.6M23.2 36.381v15.723"></path>
                        </g>
                        <g stroke-width="2">
                            <path fill="#FFE6E2" stroke="#454545" d="M81.13 36.956h12.45v14.998H81.13z"></path>
                            <path stroke="#F7C3BD" d="M81.956 37.631h10.747v13.48H81.956z"></path>
                            <path stroke="#454545" d="M80.555 44.955h13.6M87.568 36.381v15.723"></path>
                        </g>
                        <g stroke-width="2">
                            <path fill="#FFE6E2" stroke="#F7C3BD" d="M16.763 84.578h7.284V72.99a3.642 3.642 0 0 0-7.284 0v11.587z"></path>
                            <path stroke="#454545" d="M16.763 85.296h7.852v-12.38a3.926 3.926 0 0 0-7.852 0v12.38zM18.037 75.887h6.82"></path>
                        </g>
                        <g stroke-width="2">
                            <path fill="#FFE6E2" stroke="#F7C3BD" d="M85.728 84.578h7.283V72.99a3.642 3.642 0 0 0-7.283 0v11.587z"></path>
                            <path stroke="#454545" d="M85.728 85.296h7.852v-12.38a3.926 3.926 0 0 0-7.852 0v12.38zM87.001 75.887h6.821"></path>
                        </g>
                        <path stroke="#454545" stroke-width="2" d="M51.574 36.303h7.852v7.806h-7.852z"></path>
                        <path fill="#FFE6E2" d="M.657 28.765v-3.989L14.787 0h81.397l14.159 24.776v3.989z"></path>
                        <path stroke="#454545" stroke-width="2" d="M.657 28.765v-3.989L14.787 0h81.397l14.159 24.776v3.989zM31.527 62.76l24.07-11.767 23.22 11.767M36.453 94.794V59.492M73.89 94.794V59.492"></path>
                        <ellipse cx="56.157" cy="64.395" fill="#FFE6E2" stroke="#454545" stroke-width="2" rx="4.269" ry="4.249"></ellipse>
                        <path fill="#FFF" stroke="#454545" stroke-width="2" d="M110.343 25.496v3.923H.657v-3.923z"></path>
                        <path stroke="#FFDDD8" stroke-width="3" d="M0 32.053h111"></path>
                        <path stroke="#FFE6E2" stroke-width="3" d="M9.524 30.726v64.068M100.163 30.726v64.068"></path>
                    </g>
                    <g transform="translate(1086 578)">
                        <g stroke="#454545" stroke-width="2">
                            <path fill="#FFF" d="M7.225 28.765v66.683h95.237V28.765"></path>
                            <path d="M49.604 74.874h12.45v20.228h-12.45z"></path>
                            <path fill="#FFE6E2" d="M52.494 77.986h6.67v17.116h-6.67z"></path>
                        </g>
                        <g stroke="#454545" stroke-width="2">
                            <path fill="#FFE6E2" d="M16.763 36.956h12.45v14.998h-12.45z"></path>
                            <path d="M16.188 44.668h13.6M23.2 36.381v15.723"></path>
                        </g>
                        <g stroke="#454545" stroke-width="2">
                            <path fill="#FFE6E2" d="M81.13 36.956h12.45v14.998H81.13z"></path>
                            <path d="M80.555 44.955h13.6M87.568 36.381v15.723"></path>
                        </g>
                        <g stroke-width="2">
                            <path fill="#FFE6E2" stroke="#F7C3BD" d="M16.763 84.578h7.284V72.99a3.642 3.642 0 0 0-7.284 0v11.587z"></path>
                            <path stroke="#454545" d="M16.763 85.296h7.852v-12.38a3.926 3.926 0 0 0-7.852 0v12.38zM18.037 75.887h6.82"></path>
                        </g>
                        <g stroke-width="2">
                            <path fill="#FFE6E2" stroke="#F7C3BD" d="M85.728 84.578h7.283V72.99a3.642 3.642 0 0 0-7.283 0v11.587z"></path>
                            <path stroke="#454545" d="M85.728 85.296h7.852v-12.38a3.926 3.926 0 0 0-7.852 0v12.38zM87.001 75.887h6.821"></path>
                        </g>
                        <path stroke="#454545" stroke-width="2" d="M51.574 36.303h7.852v7.806h-7.852z"></path>
                        <path fill="#FFE6E2" d="M.657 28.765v-3.989L14.787 0h81.397l14.159 24.776v3.989z"></path>
                        <path stroke="#454545" stroke-width="2" d="M.657 28.765v-3.989L14.787 0h81.397l14.159 24.776v3.989zM31.527 62.76l24.07-11.767 23.22 11.767M36.453 94.794V59.492M73.89 94.794V59.492"></path>
                        <ellipse cx="56.157" cy="64.395" fill="#FFE6E2" stroke="#454545" stroke-width="2" rx="4.269" ry="4.249"></ellipse>
                        <path fill="#FFF" stroke="#454545" stroke-width="2" d="M110.343 25.496v3.923H.657v-3.923z"></path>
                        <path stroke="#FFDDD8" stroke-width="3" d="M0 32.053h111"></path>
                        <path stroke="#FFE6E2" stroke-width="3" d="M9.524 30.726v64.068M100.163 30.726v64.068"></path>
                    </g>
                    <path stroke="#454545" stroke-width="2" d="M1057.614 673.5h508.611"></path>
                    <g>
                        <path fill="#FFE6E2" d="M1624.956 647.537c-6.368 0-11.53-5.162-11.53-11.53 0-1.07.149-2.135.442-3.164L1624.956 594l11.087 38.843c1.747 6.123-1.8 12.504-7.923 14.251a11.53 11.53 0 0 1-3.164.443z"></path>
                        <path stroke="#454545" stroke-width="2" d="M1621.043 598.296l-10.126 35.474a10.53 10.53 0 0 0-.404 2.89c0 5.816 4.714 10.53 10.53 10.53.977 0 1.95-.136 2.89-.404 5.592-1.597 8.831-7.424 7.235-13.016l-10.125-35.474zM1621.37 672.42v-25.536"></path>
                    </g>
                    <g>
                        <path fill="#FFE6E2" d="M997.424 618.207c.302-1.138.464-2.331.464-3.562 0-4.879-2.526-9.176-6.363-11.702.249-.79.383-1.628.383-2.497 0-4.665-3.849-8.446-8.596-8.446-4.748 0-8.597 3.781-8.597 8.446 0 .972.175 1.902.483 2.772-3.612 2.555-5.965 6.72-5.965 11.427 0 1.311.187 2.58.528 3.784-3.352 1.152-5.761 4.28-5.761 7.966 0 2.95 1.543 5.544 3.876 7.054a8.278 8.278 0 0 0-.886 3.718c0 4.664 3.849 8.445 8.597 8.445a8.697 8.697 0 0 0 3.237-.624 13.291 13.291 0 0 0 8.225 2.827c7.294 0 13.206-5.809 13.206-12.974 0-.761-.07-1.506-.198-2.231 1.872-1.55 3.064-3.867 3.064-6.46 0-3.663-2.378-6.772-5.697-7.943z"></path>
                        <g fill="#401737">
                            <path d="M982.818 644.849l.266.21a12.387 12.387 0 0 0 7.766 2.7c6.876 0 12.47-5.557 12.47-12.386 0-.7-.063-1.417-.187-2.13l-.057-.326.255-.213a7.826 7.826 0 0 0 2.821-6.012c0-3.304-2.108-6.274-5.245-7.393l-.5-.178.134-.51c.292-1.11.44-2.26.44-3.414 0-4.506-2.254-8.697-6.03-11.21l-.36-.239.128-.41a7.816 7.816 0 0 0 .353-2.325c0-4.334-3.551-7.86-7.915-7.86-4.365 0-7.916 3.526-7.916 7.86 0 .868.15 1.736.446 2.58l.142.406-.35.251c-3.541 2.533-5.655 6.625-5.655 10.947 0 1.223.169 2.443.5 3.627l.147.52-.513.178c-3.173 1.103-5.305 4.082-5.305 7.414a7.831 7.831 0 0 0 3.57 6.566l.427.28-.226.456a7.736 7.736 0 0 0-.816 3.458c0 4.335 3.55 7.861 7.915 7.861a7.912 7.912 0 0 0 2.98-.581l.315-.127zm8.032 4.061c-3.005 0-5.842-.948-8.226-2.745a9.066 9.066 0 0 1-3.101.544c-5.004 0-9.075-4.043-9.075-9.013 0-1.214.244-2.395.726-3.516a8.97 8.97 0 0 1-3.681-7.244c0-3.643 2.222-6.918 5.581-8.31a14.558 14.558 0 0 1-.41-3.429c0-4.551 2.158-8.867 5.796-11.63a8.876 8.876 0 0 1-.38-2.554c0-4.97 4.072-9.013 9.077-9.013 5.004 0 9.075 4.044 9.075 9.013 0 .765-.097 1.52-.287 2.255 3.888 2.75 6.197 7.178 6.197 11.93 0 1.08-.12 2.156-.356 3.206 3.326 1.406 5.527 4.673 5.527 8.288a8.967 8.967 0 0 1-2.984 6.676 13.5 13.5 0 0 1 .152 2.005c0 7.465-6.115 13.537-13.631 13.537z"></path>
                            <path d="M987.403 674h1.244v-50.791h-1.244z"></path>
                            <path d="M988.843 634.224l-.818-.805 6.026-5.926.818.804z"></path>
                        </g>
                    </g>
                    <path stroke="#454545" stroke-width="2" d="M1580 673l84 .5"></path>
                </g>
                <path stroke="#454545" stroke-width="2" d="M769 674.395l262.964-.395M221 673l-53 .57"></path>
                <g>
                    <g stroke-width="2">
                        <path fill="#FFE6E2" stroke="#F7C3BD" d="M1240.637 584.632h8.61v-14.62a4.305 4.305 0 0 0-8.61 0v14.62z"></path>
                        <path stroke="#454545" d="M1240.637 585.486h9.035v-15.69a4.518 4.518 0 1 0-9.035 0v15.69zM1242.184 573.887h7.64"></path>
                    </g>
                    <g stroke-width="2">
                        <path fill="#FFE6E2" stroke="#F7C3BD" d="M1240.637 617.48h8.61v-14.621a4.305 4.305 0 0 0-8.61 0v14.62z"></path>
                        <path stroke="#454545" d="M1240.637 618.333h9.035v-15.69a4.518 4.518 0 1 0-9.035 0v15.69zM1242.184 606.735h7.64"></path>
                    </g>
                    <g stroke-width="2">
                        <path fill="#FFE6E2" stroke="#F7C3BD" d="M1263.167 617.48h8.61v-14.621a4.305 4.305 0 0 0-8.61 0v14.62z"></path>
                        <path stroke="#454545" d="M1263.167 618.333h9.035v-15.69a4.518 4.518 0 1 0-9.035 0v15.69zM1264.714 606.735h7.64"></path>
                    </g>
                    <g stroke-width="2">
                        <path fill="#FFE6E2" stroke="#F7C3BD" d="M1263.627 651.252h8.61v-14.62a4.305 4.305 0 0 0-8.61 0v14.62z"></path>
                        <path stroke="#454545" d="M1263.627 652.106h9.035v-15.69a4.518 4.518 0 1 0-9.035 0v15.69zM1265.173 640.508h7.64"></path>
                    </g>
                    <g stroke-width="2">
                        <path fill="#FFE6E2" stroke="#F7C3BD" d="M1240.637 651.252h8.61v-14.62a4.305 4.305 0 0 0-8.61 0v14.62z"></path>
                        <path stroke="#454545" d="M1240.637 652.106h9.035v-15.69a4.518 4.518 0 1 0-9.035 0v15.69zM1242.184 640.508h7.64"></path>
                    </g>
                    <g stroke-width="2">
                        <path fill="#FFE6E2" stroke="#F7C3BD" d="M1263.627 583.706h8.61v-14.62a4.305 4.305 0 0 0-8.61 0v14.62z"></path>
                        <path stroke="#454545" d="M1263.627 584.56h9.035v-15.689a4.518 4.518 0 1 0-9.035 0v15.69zM1265.173 572.962h7.64"></path>
                    </g>
                    <path fill="#FFE6E2" stroke="#454545" stroke-width="2" d="M1222.625 552.713h32.875l38.852-.197v-3.273L1255.5 512l-38.852 37.243v3.273z"></path>
                    <path stroke="#454545" stroke-width="2" d="M1278.26 533.987v-16.435h5.517v21.449zM1218.027 664.672h74.946V673h-74.946zM1222.395 552.713V664.21M1288.605 552.713v111.96"></path>
                    <path fill="#FFF" stroke="#454545" stroke-width="2" d="M1216.648 549.243h77.704v3.47h-77.704z"></path>
                    <g stroke="#454545" stroke-width="2">
                        <path fill="#FFF" d="M1246.155 539.971h17.77v-.505a8.886 8.886 0 0 0-17.77 0v.505z"></path>
                        <path d="M1255.04 540.49v-10.107M1255.04 540.49l7.335-6.578M1255.04 540.49l-7.175-7.06"></path>
                    </g>
                    <path stroke="#FFE6E2" stroke-width="3" d="M1225.166 553.87v110.34M1285.604 553.87v110.34M1295 555.522h-79"></path>
                </g>
                <g>
                    <g stroke-width="2">
                        <path fill="#FFE6E2" stroke="#F7C3BD" d="M404.637 584.632h8.61v-14.62a4.305 4.305 0 0 0-8.61 0v14.62z"></path>
                        <path stroke="#454545" d="M404.637 585.486h9.035v-15.69a4.518 4.518 0 1 0-9.035 0v15.69zM406.184 573.887h7.64"></path>
                    </g>
                    <g stroke-width="2">
                        <path fill="#FFE6E2" stroke="#F7C3BD" d="M404.637 617.48h8.61v-14.621a4.305 4.305 0 0 0-8.61 0v14.62z"></path>
                        <path stroke="#454545" d="M404.637 618.333h9.035v-15.69a4.518 4.518 0 1 0-9.035 0v15.69zM406.184 606.735h7.64"></path>
                    </g>
                    <g stroke-width="2">
                        <path fill="#FFE6E2" stroke="#F7C3BD" d="M427.167 617.48h8.61v-14.621a4.305 4.305 0 0 0-8.61 0v14.62z"></path>
                        <path stroke="#454545" d="M427.167 618.333h9.035v-15.69a4.518 4.518 0 1 0-9.035 0v15.69zM428.714 606.735h7.64"></path>
                    </g>
                    <g stroke-width="2">
                        <path fill="#FFE6E2" stroke="#F7C3BD" d="M427.627 651.252h8.61v-14.62a4.305 4.305 0 0 0-8.61 0v14.62z"></path>
                        <path stroke="#454545" d="M427.627 652.106h9.035v-15.69a4.518 4.518 0 1 0-9.035 0v15.69zM429.173 640.508h7.64"></path>
                    </g>
                    <g stroke-width="2">
                        <path fill="#FFE6E2" stroke="#F7C3BD" d="M404.637 651.252h8.61v-14.62a4.305 4.305 0 0 0-8.61 0v14.62z"></path>
                        <path stroke="#454545" d="M404.637 652.106h9.035v-15.69a4.518 4.518 0 1 0-9.035 0v15.69zM406.184 640.508h7.64"></path>
                    </g>
                    <g stroke-width="2">
                        <path fill="#FFE6E2" stroke="#F7C3BD" d="M427.627 583.706h8.61v-14.62a4.305 4.305 0 0 0-8.61 0v14.62z"></path>
                        <path stroke="#454545" d="M427.627 584.56h9.035v-15.689a4.518 4.518 0 1 0-9.035 0v15.69zM429.173 572.962h7.64"></path>
                    </g>
                    <path fill="#FFE6E2" stroke="#454545" stroke-width="2" d="M386.625 552.713H419.5l38.852-.197v-3.273L419.5 512l-38.852 37.243v3.273z"></path>
                    <path stroke="#454545" stroke-width="2" d="M442.26 533.987v-16.435h5.517v21.449zM382.027 664.672h74.946V673h-74.946zM386.395 552.713V664.21M452.605 552.713v111.96"></path>
                    <path fill="#FFF" stroke="#454545" stroke-width="2" d="M380.648 549.243h77.704v3.47h-77.704z"></path>
                    <g stroke="#454545" stroke-width="2">
                        <path fill="#FFF" d="M410.155 539.971h17.77v-.505a8.886 8.886 0 0 0-17.77 0v.505z"></path>
                        <path d="M419.04 540.49v-10.107M419.04 540.49l7.335-6.578M419.04 540.49l-7.175-7.06"></path>
                    </g>
                    <path stroke="#FFE6E2" stroke-width="3" d="M388.166 553.87v110.34M450.604 553.87v110.34M459 555.522h-79"></path>
                </g>
                <g transform="translate(249 578)">
                    <g stroke="#454545" stroke-width="2">
                        <path fill="#FFF" d="M7.225 28.765v66.683h95.237V28.765"></path>
                        <path d="M49.604 74.874h12.45v20.228h-12.45z"></path>
                        <path fill="#FFE6E2" d="M52.494 77.986h6.67v17.116h-6.67z"></path>
                    </g>
                    <g stroke-width="2">
                        <path fill="#FFE6E2" stroke="#454545" d="M16.763 36.956h12.45v14.998h-12.45z"></path>
                        <path stroke="#F7C3BD" d="M17.59 37.631h10.746v13.48H17.59z"></path>
                        <path stroke="#454545" d="M16.188 44.668h13.6M23.2 36.381v15.723"></path>
                    </g>
                    <g stroke-width="2">
                        <path fill="#FFE6E2" stroke="#454545" d="M81.13 36.956h12.45v14.998H81.13z"></path>
                        <path stroke="#F7C3BD" d="M81.956 37.631h10.747v13.48H81.956z"></path>
                        <path stroke="#454545" d="M80.555 44.955h13.6M87.568 36.381v15.723"></path>
                    </g>
                    <g stroke-width="2">
                        <path fill="#FFE6E2" stroke="#F7C3BD" d="M16.763 84.578h7.284V72.99a3.642 3.642 0 0 0-7.284 0v11.587z"></path>
                        <path stroke="#454545" d="M16.763 85.296h7.852v-12.38a3.926 3.926 0 0 0-7.852 0v12.38zM18.037 75.887h6.82"></path>
                    </g>
                    <g stroke-width="2">
                        <path fill="#FFE6E2" stroke="#F7C3BD" d="M85.728 84.578h7.283V72.99a3.642 3.642 0 0 0-7.283 0v11.587z"></path>
                        <path stroke="#454545" d="M85.728 85.296h7.852v-12.38a3.926 3.926 0 0 0-7.852 0v12.38zM87.001 75.887h6.821"></path>
                    </g>
                    <path stroke="#454545" stroke-width="2" d="M51.574 36.303h7.852v7.806h-7.852z"></path>
                    <path fill="#FFE6E2" d="M.657 28.765v-3.989L14.787 0h81.397l14.159 24.776v3.989z"></path>
                    <path stroke="#454545" stroke-width="2" d="M.657 28.765v-3.989L14.787 0h81.397l14.159 24.776v3.989zM31.527 62.76l24.07-11.767 23.22 11.767M36.453 94.794V59.492M73.89 94.794V59.492"></path>
                    <ellipse cx="56.157" cy="64.395" fill="#FFE6E2" stroke="#454545" stroke-width="2" rx="4.269" ry="4.249"></ellipse>
                    <path fill="#FFF" stroke="#454545" stroke-width="2" d="M110.343 25.496v3.923H.657v-3.923z"></path>
                    <path stroke="#FFDDD8" stroke-width="3" d="M0 32.053h111"></path>
                    <path stroke="#FFE6E2" stroke-width="3" d="M9.524 30.726v64.068M100.163 30.726v64.068"></path>
                </g>
            </g>
        </svg>