<svg xmlns="http://www.w3.org/2000/svg" xmlns:xlink="http://www.w3.org/1999/xlink" viewBox="0 0 239 239" class="index-how__item-icon">
                        <defs>
                            <circle id="a" cx="117.5" cy="117.5" r="117.5"></circle>
                        </defs>
                        <g fill="none" fill-rule="evenodd" transform="translate(1 1)">
                            <mask id="b" fill="#fff">
                                <use xlink:href="#a"></use>
                            </mask>
                            <use stroke="#454545" stroke-width="2" xlink:href="#a"></use>
                            <g fill="#D9E0EC" fill-rule="nonzero" mask="url(#b)">
                                <path d="M214.475 20H161.97a1.52 1.52 0 0 0-1.525 1.515v30.112h-13.92A1.52 1.52 0 0 0 145 53.142v25.673c0 5.064 4.148 9.185 9.248 9.185h52.504c5.1 0 9.248-4.12 9.248-9.185v-57.3A1.52 1.52 0 0 0 214.475 20zM148.05 78.815V54.656h12.395v24.16c0 3.393-2.78 6.155-6.198 6.155-3.417 0-6.197-2.762-6.197-6.156zm64.9 0c0 3.394-2.78 6.156-6.198 6.156h-45.646a9.116 9.116 0 0 0 2.39-6.156V23.03h49.454v55.786z"></path>
                                <path d="M185.552 37h19.896c.857 0 1.552-.671 1.552-1.5s-.695-1.5-1.552-1.5h-19.896c-.857 0-1.552.671-1.552 1.5s.695 1.5 1.552 1.5zM185.552 55h19.896c.857 0 1.552-.671 1.552-1.5s-.695-1.5-1.552-1.5h-19.896c-.857 0-1.552.671-1.552 1.5s.695 1.5 1.552 1.5zM185.552 70h19.896c.857 0 1.552-.671 1.552-1.5s-.695-1.5-1.552-1.5h-19.896c-.857 0-1.552.671-1.552 1.5 0 .828.695 1.5 1.552 1.5zM171.854 38.53c.292.3.698.47 1.122.47h.013c.43-.004.838-.18 1.128-.488l8.48-9.006c.574-.61.53-1.557-.1-2.115a1.578 1.578 0 0 0-2.18.096l-7.36 7.816-2.29-2.352a1.579 1.579 0 0 0-2.183-.06 1.465 1.465 0 0 0-.063 2.115l3.433 3.525zM180.316 45.488l-7.359 7.815-2.291-2.352a1.577 1.577 0 0 0-2.182-.06 1.465 1.465 0 0 0-.063 2.116l3.433 3.524c.292.3.698.469 1.122.469h.013c.43-.004.838-.18 1.128-.488l8.48-9.005c.574-.611.53-1.558-.1-2.115a1.578 1.578 0 0 0-2.18.096zM180.316 62.488l-7.359 7.815-2.291-2.352a1.577 1.577 0 0 0-2.182-.06 1.465 1.465 0 0 0-.063 2.116l3.433 3.524c.292.3.698.469 1.122.469h.013c.43-.004.838-.18 1.128-.488l8.48-9.006c.574-.61.53-1.557-.1-2.115a1.578 1.578 0 0 0-2.18.097z"></path>
                            </g>
                            <g stroke="#454545" stroke-width="2" mask="url(#b)">
                                <path d="M118 153v-5.548L134.736 122h61L212 147.452V153M199 153v47h-68l.613-46.95L199 153z"></path>
                                <path d="M177 200v-38h-21v38"></path>
                                <path fill="#FFE6E2" d="M171 200v-31h-15v31M140 176h8v8h-8zM184 176h8v8h-8z"></path>
                                <path fill="#FFF" d="M167 110.5l-1.242-36L54 74v141"></path>
                                <path d="M166.5 210v13M118 153.5h94M212 153h-94v-5h94z"></path>
                                <path fill="#FFE6E2" d="M73 96h17v17H73zM73 128h17v17H73zM73 162h17v17H73z"></path>
                                <path d="M101 101.5h22M101 108.5h46M103 128.5h15"></path>
                            </g>
                            <text fill="#3A425A" font-size="22" mask="url(#b)">
                                <tspan x="82.268" y="52">Listing</tspan>
                            </text>
                        </g>
                    </svg>