<svg xmlns="http://www.w3.org/2000/svg" viewBox="0 0 197 196">
                            <g fill="none" fill-rule="evenodd" transform="translate(1 1)">
                                <circle cx="140.69" cy="168.5" r="7.5" stroke="#FFF" stroke-width="2" opacity=".403"></circle>
                                <path stroke="#FF567F" stroke-width="2" d="M14.354 47.51C14.67 28.396 30.043 13 48.963 13 65.34 13 79.06 24.535 82.656 40.032a21.736 21.736 0 0 1 13.507-4.692c11.563 0 21.045 9.037 21.955 20.527.047.598.072 1.203.072 1.814 0 12.338-9.862 22.34-22.027 22.34-8.214 0-15.378-4.56-19.165-11.32-6.29 8.793-16.504 14.512-28.035 14.512-4.514 0-8.826-.876-12.78-2.47C32.434 85.185 26.863 88 20.644 88 9.347 88 .19 78.712.19 67.255c0-9.231 5.945-17.055 14.164-19.745z" opacity=".25"></path>
                                <rect width="141" height="114" x="25.19" y="55" fill="#F6FBFF" stroke="#E81C4E" stroke-width="2" rx="7"></rect>
                                <rect width="114" height="89" x="38.69" y="67.5" fill="#F6FBFF" stroke="#FF567F" opacity=".356" rx="4"></rect>
                                <ellipse cx="29.19" cy="127" stroke="#FFF" stroke-width="2" rx="16" ry="9"></ellipse>
                                <path stroke="#FFF" stroke-width="2" d="M13.19 127v58.226c3.2 5.85 8.533 8.774 16 8.774 7.466 0 12.8-3.19 16-9.571M44.69 127v58"></path>
                                <g fill="#F6FBFF" stroke="#E81C4E" stroke-width="2" transform="translate(13.19 118)">
                                    <path d="M0 9.5v57.792C3.143 73.097 8.381 76 15.714 76c7.334 0 12.572-3.167 15.715-9.5v-57"></path>
                                    <ellipse cx="15.714" cy="8.708" rx="15.714" ry="8.708"></ellipse>
                                </g>
                                <g fill="#F6FBFF" stroke="#E81C4E" stroke-width="2" transform="translate(51.19 141)">
                                    <path d="M0 9.636v36.75C4.267 50.797 9.867 53 16.8 53s12-2.486 15.2-7.459V10.038"></path>
                                    <ellipse cx="16" cy="8.833" rx="16" ry="8.833"></ellipse>
                                </g>
                                <path stroke="#FF8E8E" d="M51.19 166c12.188 6.667 22.52 6.667 31 0M51.19 174c12.188 6.667 22.52 6.667 31 0M51.19 181c12.188 6.667 22.52 6.667 31 0" opacity=".403"></path>
                                <path stroke="#FFF" d="M44.19 140c-3.5 3.333-8.5 5-15 5" opacity=".403"></path>
                                <path stroke="#E81C4E" d="M13.19 141c1.777 2.133 4.444 3.467 8 4M13.19 173c2.727 2.778 5.727 4.444 9 5M44.19 149c-3.25 3.333-8.25 5-15 5M44.19 166c-3.25 3.333-8.25 5-15 5M44.19 158c-4.89 3.81-12.223 5.442-22 4.898M14.19 165c1.454 1 2.787 1.667 4 2M14.19 180c1.904 2.051 3.571 3.385 5 4" opacity=".403"></path>
                                <path stroke="#E81C4E" d="M28.19 178.5h5M29.19 185.5h6M44.19 179c-.5 1.905-2.5 3.571-6 5" opacity=".404"></path>
                                <g transform="translate(19.19 35)">
                                    <path fill="#F6FBFF" fill-rule="nonzero" stroke="#E81C4E" stroke-width="2" d="M145.308 57.65c-24.289-8.806-23.922-28.095-23.596-45.135.02-1.023.039-2.014.052-2.986 9.477-.399 17.056-3.265 23.544-8.905 6.489 5.64 14.069 8.507 23.547 8.905.013.972.032 1.962.051 2.984.326 17.04.693 36.331-23.598 45.137z"></path>
                                    <path fill="#E81C4E" fill-rule="nonzero" d="M151.567 24.337h-1.687v-3.615c0-2.563-2.268-4.648-5.056-4.648-2.787 0-5.055 2.085-5.055 4.648v3.615h-1.683c-1.549 0-2.809 1.183-2.809 2.637v8.966c0 1.454 1.26 2.637 2.809 2.637h13.48c1.55 0 2.81-1.183 2.81-2.637v-8.966c0-1.454-1.26-2.637-2.81-2.637zm-9.926-3.615c0-1.593 1.428-2.89 3.183-2.89s3.183 1.297 3.183 2.89v3.615h-6.366v-3.615zm10.862 15.218c0 .485-.42.879-.936.879h-13.481c-.517 0-.936-.394-.936-.88v-8.965c0-.485.42-.88.936-.88h13.48c.517 0 .937.395.937.88v8.966z"></path>
                                    <path stroke="#E81C4E" d="M57.294 96.442V57.865M38.196 77.957l38.196-.803M43.766 63.491l27.056 27.325M43.766 90.816l27.056-27.325" opacity=".397"></path>
                                    <rect width="23.464" height="12.466" x="1" y="50.828" fill="#F6FBFF" stroke="#E81C4E" stroke-width="2" rx="3.5"></rect>
                                    <path stroke="#E81C4E" d="M98.546 91.506a2 2 0 0 0 .73 2.72l20.489 11.948.015.009a2 2 0 0 0 2.729-.744l1.099-1.923a2 2 0 0 0-.729-2.72l-20.49-11.948-.014-.008a2 2 0 0 0-2.73.743l-1.099 1.923z" opacity=".353"></path>
                                    <ellipse cx="57.294" cy="77.154" stroke="#FC2B5F" stroke-width="2" rx="19.098" ry="19.288"></ellipse>
                                    <ellipse cx="57.788" cy="77.957" fill="#F6FBFF" stroke="#E81C4E" stroke-width="2" rx="3.979" ry="4.018"></ellipse>
                                    <ellipse cx="101.856" cy="91.62" fill="#F6FBFF" stroke="#E81C4E" stroke-width="2" rx="6.366" ry="6.429"></ellipse>
                                </g>
                                <circle cx="184.69" cy="20.5" r="9.5" stroke="#FF567F" stroke-width="2"></circle>
                                <circle cx="164.19" cy="4" r="4" stroke="#FF567F" opacity=".36"></circle>
                                <path stroke="#E81C4E" stroke-width="2" d="M30.19 37c3.652-6.5 9.652-10.833 18-13M27.19 40c-1.334 2.258-2 5.258-2 9"></path>
                            </g>
                        </svg>