<svg xmlns="http://www.w3.org/2000/svg" xmlns:xlink="http://www.w3.org/1999/xlink" viewBox="0 0 320 287" class="index-how__item-icon index-how__item-icon--second">
                        <defs>
                            <circle id="a" cx="62.5" cy="62.5" r="62.5"></circle>
                        </defs>
                        <g fill="none" fill-rule="evenodd" transform="translate(20 20)">
                            <circle cx="134.5" cy="124.5" r="117.5" stroke="#454545" stroke-width="2"></circle>
                            <g transform="translate(150 117)">
                                <circle cx="65" cy="65" r="64" fill="#FFF" stroke="#454545" stroke-linejoin="square" stroke-width="2"></circle>
                                <circle cx="65" cy="65" r="75" stroke="#FFF" stroke-width="20"></circle>
                                <g transform="translate(30.545 39.06)">
                                    <path fill="#FFE6E2" stroke="#454545" stroke-width="2" d="M9.455 21.576C14.369 3.566 26.817-2.656 46.8 2.911c7.535 3.93 11.753 10.606 12.654 20.028-4.167-4.19-8.507-5.762-13.021-4.714"></path>
                                    <path fill="#FFE6E2" stroke="#454545" stroke-width="2" d="M59.455 22.94c-3.176-2.84-7.207-4.261-12.094-4.261-7.329 0-18.078 10.682-25.896 14.08-7.818 3.399-13.681 7.283-21.01-7.04 13.192-4.127 13.192-7.04 17.59-10.924 4.397-3.885 6.84-4.856 14.17-4.856"></path>
                                    <path stroke="#454545" stroke-width="2" d="M13.455 36.012v14.867c0 6.835 2.975 11.718 15.126 17.577 12.151 5.859 26.038-7.01 29.014-14.648 2.975-7.637 1.488-29.514 1.488-30.869"></path>
                                    <circle cx="26.955" cy="41.439" r="1.5" fill="#525252"></circle>
                                    <circle cx="46.955" cy="41.439" r="1.5" fill="#3F3F3F"></circle>
                                    <path stroke="#454545" stroke-width="2" d="M33.455 37.964l-15 .368v.107a7.5 7.5 0 0 0 15 0v-.475zM53.437 37.962l-14.935.33a7.501 7.501 0 0 0 14.935-.33zM29.455 68.939l-.193 6.474H13.455v11.526M40.455 68.939v5.987h16v12.013M43.7 31.69c3.124-1.636 5.651-1.118 7.582 1.554M23.455 31.816c2.166-1.004 4.166-1.004 6 0"></path>
                                    <rect width="6" height="1" x="32.955" y="49.439" fill="#D8D8D8" stroke="#454545" rx=".5"></rect>
                                    <path stroke="#454545" stroke-width="2" d="M29.455 53.94c4.666 2.666 9.333 2.666 14 0"></path>
                                </g>
                                <g opacity=".3" transform="translate(70.91 .985)">
                                    <path stroke="#979797" d="M13.788 22.112c7.615 0 13.788-6.036 13.788-13.483C16.546 2.157 7.446 1.08 1.655 0 0 3.775 0 5.427 0 8.63c0 7.446 6.173 13.482 13.788 13.482z"></path>
                                    <ellipse cx="14.891" cy="11.865" fill="#979797" rx="1.655" ry="1.618"></ellipse>
                                    <path stroke="#979797" d="M8.548 8.629l6.343 3.236V6.472M0 11.056h4.412M27.576 11.056h-4.412M14.89 22.112v-3.775"></path>
                                </g>
                                <g stroke="#979797" opacity=".302">
                                    <path d="M113.097 108.687V72.694h5.344V102.2M98.485 72.694h30.96c.646-3.59.646-7.54 0-11.849L121.89 40.38h-12.857L98.485 72.694z"></path>
                                </g>
                                <circle cx="80.727" cy="92.606" r="2.955" fill="#FC2B5F" opacity=".651"></circle>
                                <circle cx="54.152" cy="92.606" r="2.955" fill="#FC2B5F" opacity=".645"></circle>
                                <text fill="#3A425A" font-size="17">
                                    <tspan x="32.867" y="32.621">Employee</tspan>
                                </text>
                            </g>
                            <mask id="b" fill="#fff">
                                <use xlink:href="#a"></use>
                            </mask>
                            <circle cx="62.5" cy="62.5" r="61.5" fill="#FFF" stroke="#454545" stroke-linejoin="square" stroke-width="2"></circle>
                            <circle cx="62.5" cy="62.5" r="72.5" stroke="#FFF" stroke-width="20"></circle>
                            <g fill="#000" fill-rule="nonzero" mask="url(#b)" opacity=".116">
                                <path d="M124.42 25.591h-9.213v-1.616a2.971 2.971 0 0 0-2.96-2.975h-7.494a2.971 2.971 0 0 0-2.96 2.975v1.616H92.58A2.59 2.59 0 0 0 90 28.185v18.222A2.59 2.59 0 0 0 92.58 49h31.84a2.59 2.59 0 0 0 2.58-2.593V28.185a2.59 2.59 0 0 0-2.58-2.594zm-21.153-1.616c0-.823.667-1.494 1.486-1.494h7.494c.82 0 1.486.67 1.486 1.494v1.616h-10.466v-1.616zm22.259 22.432a1.11 1.11 0 0 1-1.106 1.112H92.58a1.11 1.11 0 0 1-1.106-1.112V32.113l11.316 5.516a2.957 2.957 0 0 0 2.91 2.482h5.6a2.957 2.957 0 0 0 2.91-2.482l7.068-3.445a.742.742 0 0 0 .341-.99.735.735 0 0 0-.984-.343l-6.591 3.213a2.953 2.953 0 0 0-2.743-1.879h-5.602c-1.244 0-2.31.78-2.742 1.879l-11.483-5.598v-2.281a1.11 1.11 0 0 1 1.106-1.112h31.84c.61 0 1.106.498 1.106 1.112v18.222zm-21.3-9.259a1.48 1.48 0 0 1 1.473-1.481h5.602a1.48 1.48 0 0 1 1.474 1.481 1.48 1.48 0 0 1-1.474 1.482h-5.602a1.48 1.48 0 0 1-1.474-1.482z"></path>
                                <path d="M124.923 32.49c-.184-.432-.642-.612-1.022-.403l-.47.26c-.38.21-.538.73-.354 1.162.132.31.405.491.689.491a.686.686 0 0 0 .333-.087l.47-.26c.38-.21.538-.73.354-1.162z"></path>
                            </g>
                            <g transform="translate(38 40)">
                                <path fill="#FFE6E2" stroke="#454545" stroke-width="2" d="M8.676 0c-1.712 8.889-.171 15.111 4.623 18.667 7.192 5.333 19.008 2.666 24.659 2.666 5.65 0 11.815-9.066 7.705-13.333-4.11-4.267-14.897-6.4-23.63-4.8C16.21 4.267 11.758 3.2 8.676 0z"></path>
                                <path stroke="#454545" stroke-width="2" d="M11.356 17.12C5.786 20.24 3 24.573 3 30.12v18.72C3 53 6.656 66 23.367 66 40.077 66 50 60.02 50 50.4V28.04c0-7.627-1.044-12.307-3.133-14.04"></path>
                                <circle cx="16.5" cy="34.5" r="2.5" fill="#454545"></circle>
                                <circle cx="38.5" cy="34.5" r="2.5" fill="#454545"></circle>
                                <path stroke="#454545" stroke-width="2" d="M24 39c.813 2.667 2.172 4 4.076 4C30.933 43 32 41.5 32 39M18 49c6.162 5.333 12.495 5.333 19 0M25 57.5h5M10 29c2-3.556 5-4.74 9-3.556M45 30c-2.333-3.556-5.333-4.74-9-3.556"></path>
                                <path fill="#FFE6E2" stroke="#454545" stroke-width="2" d="M3 29V17.703c.141-3.766 1.808-6.334 5-7.703"></path>
                                <path stroke="#454545" stroke-width="2" d="M21 66v4.333H9.975C5.25 70.333 0 72.5 0 79M29 78l-8-7M34.5 66v5M35 71l-6 7M35 71.042h10.256C51.752 70.68 55 72.667 55 77M28.5 78v7"></path>
                            </g>
                            <text fill="#3A425A" font-size="17">
                                <tspan x="29.173" y="33">Recruiter</tspan>
                            </text>
                        </g>
                    </svg>