<svg xmlns="http://www.w3.org/2000/svg" xmlns:xlink="http://www.w3.org/1999/xlink" viewBox="0 0 184 160">
                            <defs>
                                <circle id="b" cx="16" cy="16" r="16"></circle>
                                <filter id="a" width="112.5%" height="118.7%" x="-6.2%" y="-6.2%" filterUnits="objectBoundingBox">
                                    <feMorphology in="SourceAlpha" operator="dilate" radius="1" result="shadowSpreadOuter1"></feMorphology>
                                    <feOffset dy="2" in="shadowSpreadOuter1" result="shadowOffsetOuter1"></feOffset>
                                    <feMorphology in="SourceAlpha" radius="1" result="shadowInner"></feMorphology>
                                    <feOffset dy="2" in="shadowInner" result="shadowInner"></feOffset>
                                    <feComposite in="shadowOffsetOuter1" in2="shadowInner" operator="out" result="shadowOffsetOuter1"></feComposite>
                                    <feColorMatrix in="shadowOffsetOuter1" values="0 0 0 0 1 0 0 0 0 1 0 0 0 0 1 0 0 0 0.135653409 0"></feColorMatrix>
                                </filter>
                                <circle id="d" cx="18" cy="18" r="18"></circle>
                                <filter id="c" width="111.1%" height="116.7%" x="-5.6%" y="-5.6%" filterUnits="objectBoundingBox">
                                    <feMorphology in="SourceAlpha" operator="dilate" radius="1" result="shadowSpreadOuter1"></feMorphology>
                                    <feOffset dy="2" in="shadowSpreadOuter1" result="shadowOffsetOuter1"></feOffset>
                                    <feMorphology in="SourceAlpha" radius="1" result="shadowInner"></feMorphology>
                                    <feOffset dy="2" in="shadowInner" result="shadowInner"></feOffset>
                                    <feComposite in="shadowOffsetOuter1" in2="shadowInner" operator="out" result="shadowOffsetOuter1"></feComposite>
                                    <feColorMatrix in="shadowOffsetOuter1" values="0 0 0 0 1 0 0 0 0 1 0 0 0 0 1 0 0 0 0.15 0"></feColorMatrix>
                                </filter>
                            </defs>
                            <g fill="none" fill-rule="evenodd">
                                <path stroke="#FF3863" d="M1.19 111.5h181" opacity=".252"></path>
                                <path stroke="#FF3863" stroke-linecap="round" stroke-width="2" d="M17.783 20H7.218c-4.43 0-5.907 3.757-5.907 9.016 0 5.26-.274 113.431 0 119.465.275 6.034.275 10.519 8.121 10.519h163.16c6.398 0 9.598-3.757 9.598-11.27V26.762c-.493-4.508-2.954-6.762-7.383-6.762h-11.074"></path>
                                <g transform="translate(46.19 6)">
                                    <use fill="#000" filter="url(#a)" xlink:href="#b"></use>
                                    <use stroke="#FF3863" stroke-width="2" xlink:href="#b"></use>
                                </g>
                                <text fill="#FF3863" font-size="15" transform="translate(46.19 6)">
                                    <tspan x="11.254" y="24.227">$</tspan>
                                </text>
                                <g transform="translate(97.19 1)">
                                    <use fill="#000" filter="url(#c)" xlink:href="#d"></use>
                                    <use stroke="#FF3863" stroke-width="2" xlink:href="#d"></use>
                                </g>
                                <text fill="#FF3863" font-size="18" transform="translate(97.19 1)">
                                    <tspan x="12.379" y="28.16">$</tspan>
                                </text>
                                <g opacity=".303">
                                    <path stroke="#FF3863" stroke-width="2" d="M45.534 10.279c-4.8-3.611-11.65-3.233-16.02 1.133-4.784 4.78-4.784 12.53 0 17.31 3.948 3.944 9.92 4.634 14.574 2.069"></path>
                                    <text fill="#FF567F" font-size="10" transform="translate(20.19 2)">
                                        <tspan x="13.245" y="23.787">$</tspan>
                                    </text>
                                </g>
                                <g opacity=".296">
                                    <path stroke="#FF3863" stroke-width="2" d="M139.103 32.227c6 2.422 13.023.119 16.351-5.647 3.644-6.31 1.481-14.38-4.83-18.024a13.18 13.18 0 0 0-12.288-.48"></path>
                                    <text fill="#FF567F" font-size="11" transform="translate(127.19 3)">
                                        <tspan x="13.727" y="21.917">$</tspan>
                                    </text>
                                </g>
                                <path stroke="#FF3863" stroke-linecap="round" stroke-width="2" d="M84.19 22.5h6"></path>
                                <g fill="#E81C4E" fill-rule="nonzero">
                                    <path d="M109.703 84.094c-1.444-3.104-6.608-7.413-11.598-11.577-2.783-2.32-5.413-4.514-7.09-6.244a1.499 1.499 0 0 0-1.602-.37c-1.033.386-1.67.683-2.173.914-.766.354-1.024.474-2.056.582-.457.047-.868.3-1.122.692-2.167 3.342-4.41 3.057-5.91 2.539-.478-.165-.563-.376-.61-.579-.321-1.388 1.294-4.619 3.387-6.778 4.98-5.14 7.55-6.427 12.974-3.926 6.154 2.839 12.321 5.061 12.382 5.083.806.288 1.674-.148 1.953-.974.275-.825-.145-1.726-.944-2.013-.062-.022-6.106-2.2-12.137-4.986-7.028-3.24-10.884-1.106-16.392 4.578-2.096 2.162-4.943 6.538-4.208 9.747.316 1.365 1.248 2.377 2.633 2.848 3.473 1.182 6.642.05 9.002-3.18.974-.155 1.505-.383 2.301-.753a29.68 29.68 0 0 1 1.073-.474c1.753 1.698 4.12 3.674 6.611 5.75 4.505 3.76 9.615 8.021 10.764 10.487.567 1.217-.043 2.01-.457 2.374-.607.538-1.437.708-1.888.383a1.495 1.495 0 0 0-1.655-.057 1.595 1.595 0 0 0-.738 1.527c.104 1.005-.788 1.58-1.174 1.78-.981.512-2.005.423-2.388.056a1.511 1.511 0 0 0-1.59-.322c-.546.212-.926.73-.981 1.33-.092 1.038-.837 2.034-1.809 2.423-.469.183-1.149.294-1.759-.282a1.517 1.517 0 0 0-1.4-.367c-.5.127-.902.5-1.076.996-.058.158-.19.538-1.625.538-1.02 0-2.856-.712-3.754-1.325-1.076-.73-7.822-5.921-13.648-10.954-.818-.712-2.234-2.235-3.485-3.582-1.11-1.195-2.124-2.28-2.645-2.735a1.493 1.493 0 0 0-2.16.187 1.617 1.617 0 0 0 .18 2.229c.475.414 1.395 1.416 2.41 2.507 1.366 1.473 2.78 2.997 3.73 3.819 5.706 4.928 12.565 10.249 13.932 11.175 1.128.765 3.559 1.84 5.44 1.84 1.511 0 2.673-.357 3.48-1.056 1.078.433 2.304.436 3.484-.038 1.394-.556 2.54-1.678 3.19-3.038 1.208.266 2.59.08 3.847-.572 1.229-.639 2.118-1.615 2.559-2.757 1.22.067 2.476-.38 3.515-1.3 1.76-1.551 2.244-3.967 1.227-6.145z"></path>
                                    <path d="M82.528 57.875H68.282c-.873 0-1.583.658-1.583 1.469 0 .81.71 1.468 1.583 1.468h14.246c.874 0 1.583-.658 1.583-1.468 0-.811-.71-1.469-1.583-1.469zM115.782 80.564a1.465 1.465 0 0 0-2.045-.403l-4.308 2.91a1.487 1.487 0 0 0-.4 2.055c.285.424.75.655 1.225.655.28 0 .566-.08.82-.252l4.308-2.909a1.488 1.488 0 0 0 .4-2.056zM105.323 88.705c-1.039-.931-5.684-6.347-8.556-9.757-.554-.66-1.474-.684-2.052-.05-.58.632-.597 1.68-.043 2.337.746.885 7.323 8.693 8.852 10.068.264.238.583.353.897.353.426 0 .853-.218 1.143-.63.496-.715.389-1.756-.24-2.32zM99.529 91.98c-1.739-1.408-6.106-6.106-7.093-7.193a1.441 1.441 0 0 0-2.052-.088c-.589.55-.63 1.481-.087 2.077.053.056 5.265 5.753 7.418 7.498.267.214.589.32.905.32.424 0 .848-.191 1.135-.55.5-.634.398-1.56-.226-2.065zM93.752 93.47c-2.069-1.766-6.302-6.326-7.13-7.222a1.438 1.438 0 0 0-2.05-.07 1.483 1.483 0 0 0-.07 2.076c1.19 1.289 5.24 5.635 7.379 7.462a1.437 1.437 0 0 0 2.045-.176 1.482 1.482 0 0 0-.174-2.07z"></path>
                                    <path d="M70.562 55.506c-2.694-2.505-13.468-3.316-16.706-3.504a1.579 1.579 0 0 0-1.173.417c-.314.29-.493.697-.493 1.122v27.76c0 .852.704 1.543 1.572 1.543h9.431c.68 0 1.283-.429 1.493-1.064.23-.691 5.647-17.002 6.36-25.022a1.519 1.519 0 0 0-.484-1.252zM62.046 79.76h-6.713V55.195c5.053.391 10.504 1.243 12.485 2.186-.833 6.755-4.603 18.757-5.772 22.378zM124.63 54.937c-12.237 0-19.026 3.1-19.31 3.23a1.54 1.54 0 0 0-.832.96c-.125.422-.063.875.171 1.251 1.927 3.07 7.958 20.114 9.118 24.271.187.67.801 1.132 1.502 1.132h9.352c.86 0 1.559-.69 1.559-1.542v-27.76c0-.854-.699-1.542-1.56-1.542zm-1.558 27.76h-6.627c-1.477-4.762-5.841-17.18-8.276-22.312 2.379-.8 7.488-2.172 14.903-2.345v24.657z"></path>
                                </g>
                                <text fill="#E81C4E" font-size="16" font-weight="bold" letter-spacing="1.455" opacity=".397" transform="translate(1.19 .021)">
                                    <tspan x="67.563" y="138.979">SOLD</tspan>
                                </text>
                            </g>
                        </svg>